<svg width="128" height="128" viewBox="0 0 128 128" fill="none" xmlns="http://www.w3.org/2000/svg">
<path d="M113.219 104.822C119.789 96.9239 124.358 87.561 126.541 77.5252C128.723 67.4894 128.454 57.0761 125.757 47.1661C123.06 37.2561 118.013 28.1409 111.045 20.5918C104.076 13.0426 95.3901 7.28156 85.7219 3.7959C76.0536 0.310236 65.6874 -0.797464 55.5001 0.566505C45.3127 1.93047 35.604 5.72599 27.1953 11.632C18.7865 17.5379 11.9251 25.3806 7.19139 34.4966C2.4577 43.6125 -0.00897826 53.7336 2.45553e-05 64.0035C0.00347925 78.9331 5.26891 93.3845 14.8724 104.822L14.7809 104.9C15.1011 105.284 15.4671 105.613 15.7965 105.992C16.2082 106.463 16.6519 106.906 17.0774 107.363C18.3583 108.753 19.6758 110.088 21.0574 111.34C21.4782 111.724 21.9128 112.081 22.3383 112.446C23.8022 113.708 25.3072 114.906 26.8672 116.021C27.0685 116.158 27.2515 116.336 27.4528 116.478V116.423C38.1672 123.957 50.9489 128 64.0503 128C77.1518 128 89.9335 123.957 100.648 116.423V116.478C100.849 116.336 101.028 116.158 101.233 116.021C102.789 114.901 104.299 113.708 105.762 112.446C106.188 112.081 106.622 111.72 107.043 111.34C108.425 110.083 109.742 108.753 111.023 107.363C111.449 106.906 111.888 106.463 112.304 105.992C112.629 105.613 113 105.284 113.32 104.895L113.219 104.822ZM64.0458 27.436C68.1173 27.436 72.0974 28.6423 75.4828 30.9025C78.8682 33.1627 81.5068 36.3752 83.0649 40.1337C84.623 43.8922 85.0307 48.028 84.2363 52.0181C83.442 56.0081 81.4814 59.6732 78.6024 62.5499C75.7233 65.4265 72.0552 67.3856 68.0619 68.1792C64.0686 68.9729 59.9294 68.5656 56.1678 67.0087C52.4062 65.4519 49.1911 62.8155 46.929 59.4329C44.667 56.0503 43.4596 52.0734 43.4596 48.0052C43.4596 42.5499 45.6285 37.318 49.4892 33.4606C53.3498 29.6031 58.586 27.436 64.0458 27.436V27.436ZM27.4802 104.822C27.5596 98.8202 30.0006 93.091 34.2753 88.8737C38.5499 84.6565 44.3144 82.2904 50.3217 82.2873H77.7699C83.7771 82.2904 89.5416 84.6565 93.8163 88.8737C98.0909 93.091 100.532 98.8202 100.611 104.822C90.5783 113.856 77.5515 118.855 64.0458 118.855C50.5401 118.855 37.5133 113.856 27.4802 104.822V104.822Z" fill="#484848"/>
</svg>
